<svg width="100" height="100" viewBox="0 0 100 100" fill="none" xmlns="http://www.w3.org/2000/svg">
<path d="M83.9499 15.364C85.82 17.1973 86.977 20.5312 87.9891 24.4973C88.2357 25.4633 88.4685 26.4421 88.7019 27.4236L88.7069 27.4449C88.9376 28.415 89.1692 29.3888 89.4103 30.3318C89.8929 32.2194 90.4328 34.0618 91.1322 35.6156C92.2836 38.1739 93.778 40.0515 95.0422 41.6398C95.4208 42.1155 95.7788 42.5653 96.1008 42.9996C97.4958 44.8818 98.5 46.7615 98.5 50C98.5 53.3816 97.1272 55.2354 95.1851 57.1536C94.8253 57.5089 94.436 57.8729 94.029 58.2533C92.2491 59.9171 90.1331 61.895 88.6882 64.8391C87.9544 66.3344 87.5512 68.1786 87.271 70.0398C87.0732 71.3537 86.925 72.7712 86.7796 74.1607C86.719 74.7402 86.6589 75.3149 86.5959 75.8751C86.3768 77.8244 86.1192 79.6456 85.6885 81.2028C85.2539 82.7737 84.6845 83.9159 83.9499 84.636C83.2078 85.3636 82.1469 85.8338 80.7339 86.1112C79.3147 86.3897 77.6755 86.4493 75.8824 86.4569C75.4544 86.4588 75.0154 86.4575 74.5701 86.4563C73.2033 86.4525 71.7784 86.4485 70.4377 86.532C68.6536 86.6432 66.8355 86.9151 65.2587 87.6357C62.3341 88.9722 60.1858 91.3402 58.332 93.3834C57.9631 93.7901 57.6058 94.1839 57.2564 94.5541C55.0559 96.8859 53.0455 98.5 50 98.5C46.9307 98.5 44.7614 96.8603 42.4 94.5185C42.0013 94.1232 41.5935 93.702 41.173 93.2677C39.217 91.2476 36.9867 88.9442 34.1235 87.6357C32.5519 86.9175 30.7772 86.644 29.0443 86.5322C27.745 86.4484 26.3718 86.4525 25.0615 86.4563C24.6358 86.4575 24.2167 86.4588 23.8089 86.4569C22.0944 86.4493 20.5365 86.3897 19.1802 86.1133C17.836 85.8393 16.8024 85.3736 16.0501 84.636C15.2992 83.8999 14.693 82.7365 14.2016 81.1571C13.7147 79.5923 13.3832 77.7647 13.0876 75.8175C12.9939 75.2007 12.9031 74.5662 12.8117 73.9271C12.6214 72.5961 12.4282 71.2455 12.2001 69.9941C11.8619 68.1387 11.4176 66.3136 10.6939 64.8391C9.28668 61.9717 7.33835 60.0178 5.70224 58.377C5.29291 57.9665 4.90312 57.5756 4.54624 57.1949C2.76835 55.2984 1.5 53.4321 1.5 50C1.5 46.8597 3.00606 44.2369 5.08556 41.4623C5.55322 40.8383 6.05866 40.1981 6.57772 39.5407C8.26828 37.3997 10.1035 35.0754 11.25 32.5281C12.4157 29.938 12.7509 26.9842 13.049 24.3562C13.1107 23.8128 13.1708 23.2833 13.2363 22.7739C13.6394 19.6389 14.2381 17.1403 16.0501 15.364C16.7987 14.63 17.9239 13.9778 19.3798 13.3839C20.8234 12.7951 22.4898 12.3037 24.248 11.8391C24.9702 11.6483 25.7315 11.4563 26.495 11.2637C27.5252 11.0039 28.5593 10.7431 29.5063 10.4829C31.1877 10.021 32.8228 9.50327 34.1609 8.84658C35.9121 7.98713 37.347 7.06638 38.6202 6.18854C39.0913 5.86375 39.5254 5.55583 39.9405 5.26134C40.6811 4.73604 41.3614 4.25346 42.084 3.79401C44.202 2.44733 46.3921 1.5 50 1.5C52.8691 1.5 55.4497 2.90198 58.2191 4.82829C58.8214 5.24721 59.4395 5.69748 60.072 6.15826C62.2102 7.71602 64.5135 9.39398 66.9296 10.3873C69.5187 11.4518 72.3033 11.8131 74.7909 12.1359C75.4045 12.2155 76.0001 12.2928 76.5701 12.3777C79.5686 12.8242 82.0261 13.478 83.9499 15.364Z" fill="white" stroke="#A6B6F1" stroke-width="3"/>
</svg>
