<svg width="40" height="48" viewBox="0 0 40 48" fill="none" xmlns="http://www.w3.org/2000/svg">
<path d="M10.0255 36.2947C9.45151 37.2019 8.04601 36.6903 8.18942 35.6265L11.2065 13.244C11.2917 12.6115 11.9397 12.2196 12.5395 12.4379L21.5984 15.7351C22.1982 15.9534 22.4427 16.6701 22.1014 17.2095L10.0255 36.2947Z" fill="#B28FEA"/>
<path d="M9.0255 33.2947C8.45151 34.2019 7.04601 33.6903 7.18942 32.6265L10.2065 10.244C10.2917 9.61149 10.9397 9.21963 11.5395 9.43793L20.5984 12.7351C21.1982 12.9534 21.4427 13.6701 21.1014 14.2095L9.0255 33.2947Z" fill="#DECEFF"/>
<path d="M14.5764 41.6997C13.5653 42.0525 12.782 40.7839 13.5504 40.038L29.5763 24.4814C30.035 24.0362 30.7879 24.1297 31.1237 24.6736L36.1853 32.8713C36.5211 33.4152 36.2674 34.1302 35.6639 34.3408L14.5764 41.6997Z" fill="#B28FEA"/>
<path d="M14.1618 40.508C13.1713 40.9218 12.3134 39.6966 13.0411 38.9074L28.3505 22.3033C28.7832 21.8341 29.5387 21.8848 29.9048 22.4076L35.4343 30.3045C35.8004 30.8273 35.5896 31.5546 35.0007 31.8007L14.1618 40.508Z" fill="#DECEFF"/>
</svg>
