<svg width="36" height="40" viewBox="0 0 36 40" fill="none" xmlns="http://www.w3.org/2000/svg">
<path d="M27.6723 29.0637C28.2442 29.9806 29.6622 29.4645 29.5109 28.3945L27.1254 11.5213C27.0364 10.8919 26.3905 10.5042 25.7932 10.7216L19.1603 13.1358C18.563 13.3532 18.3175 14.0654 18.6539 14.6047L27.6723 29.0637Z" fill="#7F94E2"/>
<path d="M28.6723 26.0637C29.2442 26.9806 30.6622 26.4645 30.5109 25.3945L28.1254 8.5213C28.0364 7.89193 27.3905 7.5042 26.7932 7.7216L20.1603 10.1358C19.563 10.3532 19.3175 11.0654 19.6539 11.6047L28.6723 26.0637Z" fill="#CDD6FA"/>
<path d="M23.6789 35.3017C24.6941 35.6628 25.4839 34.3837 24.7062 33.6378L12.5791 22.0064C12.1196 21.5656 11.3706 21.6609 11.0361 22.2027L7.33141 28.2027C6.99688 28.7445 7.24721 29.4568 7.84715 29.6702L23.6789 35.3017Z" fill="#7F94E2"/>
<path d="M24.015 34.0479C25.0093 34.471 25.8749 33.2349 25.1372 32.4452L13.505 19.9917C13.0712 19.5272 12.3197 19.5801 11.9551 20.1008L7.90647 25.8828C7.54189 26.4035 7.74923 27.1277 8.33413 27.3766L24.015 34.0479Z" fill="#CDD6FA"/>
</svg>
