<svg width="60" height="60" viewBox="0 0 60 60" fill="none" xmlns="http://www.w3.org/2000/svg">
<path d="M9.64685 10.0501C10.6131 9.0644 12.4485 8.39992 14.8467 7.78788C15.4208 7.64138 16.0033 7.5028 16.593 7.36259L16.6077 7.35909C17.1882 7.22106 17.7768 7.08111 18.3477 6.93513C19.487 6.64381 20.634 6.30967 21.6156 5.86784C23.2274 5.1424 24.4356 4.17984 25.3928 3.4173C25.667 3.19889 25.9205 2.99689 26.1571 2.82158C27.2173 2.03578 28.2225 1.5 30 1.5C31.8027 1.5 32.7704 2.20206 33.8653 3.31055C34.0614 3.50908 34.2676 3.73016 34.4874 3.96578C35.4853 5.03546 36.7629 6.4049 38.6391 7.32569C39.622 7.80804 40.8037 8.06044 41.9346 8.23069C42.7371 8.35151 43.6101 8.44284 44.4496 8.53065C44.7938 8.56666 45.1323 8.60207 45.458 8.63869C46.6239 8.76974 47.6763 8.92027 48.5617 9.16519C49.4608 9.41392 50.0284 9.71876 50.3531 10.0501C50.6771 10.3805 50.9238 10.8903 51.0779 11.6753C51.2332 12.4662 51.2696 13.4002 51.2742 14.4731C51.2752 14.7204 51.2745 14.9776 51.2738 15.2408C51.2714 16.0651 51.2689 16.9488 51.3204 17.7747C51.3887 18.8709 51.5578 20.0485 52.0357 21.0942C52.8944 22.9731 54.4278 24.3611 55.6524 25.4696C55.889 25.6839 56.1142 25.8877 56.3207 26.0825C57.6969 27.3813 58.5 28.4357 58.5 30C58.5 31.588 57.6713 32.7396 56.2851 34.1375C56.0645 34.3599 55.8238 34.5926 55.5712 34.8367C54.3588 36.0084 52.8731 37.4442 52.0357 39.2765C51.5602 40.317 51.3895 41.4666 51.3206 42.5348C51.2689 43.3367 51.2714 44.1904 51.2738 44.9808C51.2745 45.2321 51.2752 45.4771 51.2742 45.712C51.2696 46.7372 51.2332 47.6208 51.0801 48.372C50.9294 49.1113 50.6871 49.6093 50.3531 49.9499C50.0123 50.2976 49.4237 50.6238 48.516 50.9062C47.623 51.184 46.5642 51.3776 45.4004 51.5543C45.0417 51.6087 44.6672 51.6623 44.287 51.7167C43.4819 51.8319 42.6509 51.9508 41.8889 52.0897C40.7638 52.2947 39.6013 52.5728 38.6391 53.045C36.8193 53.9381 35.5591 55.1969 34.5735 56.1813C34.3367 56.4178 34.1157 56.6385 33.9066 56.8345C32.8334 57.8406 31.8532 58.5 30 58.5C28.3207 58.5 26.8811 57.7006 25.2372 56.4685C24.8886 56.2073 24.5221 55.9177 24.1391 55.6151C22.8461 54.5935 21.3666 53.4245 19.7631 52.7029C18.1143 51.9608 16.2261 51.7479 14.6508 51.5703C14.3333 51.5345 14.0284 51.5001 13.7408 51.4631C11.865 51.2219 10.5562 50.8775 9.64685 49.9499C9.28486 49.5807 8.92921 48.9872 8.58592 48.1455C8.24764 47.3161 7.96063 46.3465 7.68356 45.2979C7.57351 44.8814 7.45928 44.4287 7.34369 43.9706C7.18535 43.3431 7.02447 42.7056 6.86832 42.1372C6.58924 41.1214 6.26666 40.0951 5.84658 39.2391C5.31294 38.1518 4.7426 37.264 4.2071 36.4873C4.00137 36.1889 3.8121 35.9222 3.63402 35.6712C3.32581 35.2369 3.05113 34.8498 2.78272 34.4276C2.02314 33.233 1.5 32.0291 1.5 30C1.5 28.4762 2.24281 27.0598 3.38954 25.4111C3.62401 25.074 3.88222 24.7198 4.15089 24.3513C5.09173 23.0608 6.16074 21.5944 6.78733 20.0704C7.45934 18.4358 7.68851 16.6627 7.88185 15.1667C7.92811 14.8088 7.97232 14.4668 8.02005 14.1463C8.28475 12.369 8.65635 11.0605 9.64685 10.0501Z" fill="white" stroke="#A6B6F1" stroke-width="3"/>
</svg>
