<svg width="428" height="996" viewBox="0 0 428 996" fill="none" xmlns="http://www.w3.org/2000/svg">
<g clip-path="url(#clip0_818_273715)">
<line y1="29.9138" x2="1076" y2="29.9138" stroke="#F5F5F5"/>
<line x1="29.5" y1="996" x2="29.5" stroke="#F5F5F5"/>
<line x1="59.5" y1="996" x2="59.5" stroke="#F5F5F5"/>
<line x1="89.5" y1="996" x2="89.5" stroke="#F5F5F5"/>
<line x1="119.5" y1="996" x2="119.5" stroke="#F5F5F5"/>
<line x1="149.5" y1="996" x2="149.5" stroke="#F5F5F5"/>
<line x1="179.5" y1="996" x2="179.5" stroke="#F5F5F5"/>
<line x1="209.5" y1="996" x2="209.5" stroke="#F5F5F5"/>
<line x1="239.5" y1="996" x2="239.5" stroke="#F5F5F5"/>
<line x1="269.5" y1="996" x2="269.5" stroke="#F5F5F5"/>
<line x1="299.5" y1="996" x2="299.5" stroke="#F5F5F5"/>
<line x1="329.5" y1="996" x2="329.5" stroke="#F5F5F5"/>
<line x1="359.5" y1="996" x2="359.5" stroke="#F5F5F5"/>
<line x1="389.5" y1="996" x2="389.5" stroke="#F5F5F5"/>
<line x1="419.5" y1="996" x2="419.5" stroke="#F5F5F5"/>
<line y1="60.3276" x2="1076" y2="60.3276" stroke="#F5F5F5"/>
<line y1="90.7415" x2="1076" y2="90.7415" stroke="#F5F5F5"/>
<line y1="121.155" x2="1076" y2="121.155" stroke="#F5F5F5"/>
<line y1="151.569" x2="1076" y2="151.569" stroke="#F5F5F5"/>
<line y1="181.983" x2="1076" y2="181.983" stroke="#F5F5F5"/>
<line y1="212.396" x2="1076" y2="212.396" stroke="#F5F5F5"/>
<line y1="242.81" x2="1076" y2="242.81" stroke="#F5F5F5"/>
<line y1="273.224" x2="1076" y2="273.224" stroke="#F5F5F5"/>
<line y1="303.638" x2="1076" y2="303.638" stroke="#F5F5F5"/>
<line y1="334.052" x2="1076" y2="334.052" stroke="#F5F5F5"/>
<line y1="364.466" x2="1076" y2="364.466" stroke="#F5F5F5"/>
<line y1="394.879" x2="1076" y2="394.879" stroke="#F5F5F5"/>
<line y1="425.293" x2="1076" y2="425.293" stroke="#F5F5F5"/>
<line y1="455.707" x2="1076" y2="455.707" stroke="#F5F5F5"/>
<line y1="486.121" x2="1076" y2="486.121" stroke="#F5F5F5"/>
<line y1="516.535" x2="1076" y2="516.535" stroke="#F5F5F5"/>
<line y1="546.948" x2="1076" y2="546.948" stroke="#F5F5F5"/>
<line y1="577.362" x2="1076" y2="577.362" stroke="#F5F5F5"/>
<line y1="606.5" x2="1076" y2="606.5" stroke="#F5F5F5"/>
<line y1="634.5" x2="1076" y2="634.5" stroke="#F5F5F5"/>
<line y1="662.5" x2="1076" y2="662.5" stroke="#F5F5F5"/>
<line y1="690.5" x2="1076" y2="690.5" stroke="#F5F5F5"/>
<line y1="718.5" x2="1076" y2="718.5" stroke="#F5F5F5"/>
<line y1="746.5" x2="1076" y2="746.5" stroke="#F5F5F5"/>
<line y1="774.5" x2="1076" y2="774.5" stroke="#F5F5F5"/>
<line y1="802.5" x2="1076" y2="802.5" stroke="#F5F5F5"/>
<line y1="830.5" x2="1076" y2="830.5" stroke="#F5F5F5"/>
<line y1="858.5" x2="1076" y2="858.5" stroke="#F5F5F5"/>
<line y1="886.5" x2="1076" y2="886.5" stroke="#F5F5F5"/>
<line y1="914.5" x2="1076" y2="914.5" stroke="#F5F5F5"/>
<line y1="942.5" x2="1076" y2="942.5" stroke="#F5F5F5"/>
<line y1="970.5" x2="1076" y2="970.5" stroke="#F5F5F5"/>
</g>
<defs>
<clipPath id="clip0_818_273715">
<rect width="428" height="996" fill="white"/>
</clipPath>
</defs>
</svg>
