<svg width="1076" height="588" viewBox="0 0 1076 588" fill="none" xmlns="http://www.w3.org/2000/svg">
<line y1="29.9138" x2="1076" y2="29.9138" stroke="#F5F5F5"/>
<line x1="29.5" y1="588" x2="29.5" stroke="#F5F5F5"/>
<line x1="59.5" y1="588" x2="59.5" stroke="#F5F5F5"/>
<line x1="89.5" y1="588" x2="89.5" stroke="#F5F5F5"/>
<line x1="119.5" y1="588" x2="119.5" stroke="#F5F5F5"/>
<line x1="149.5" y1="588" x2="149.5" stroke="#F5F5F5"/>
<line x1="179.5" y1="588" x2="179.5" stroke="#F5F5F5"/>
<line x1="209.5" y1="588" x2="209.5" stroke="#F5F5F5"/>
<line x1="239.5" y1="588" x2="239.5" stroke="#F5F5F5"/>
<line x1="269.5" y1="588" x2="269.5" stroke="#F5F5F5"/>
<line x1="299.5" y1="588" x2="299.5" stroke="#F5F5F5"/>
<line x1="329.5" y1="588" x2="329.5" stroke="#F5F5F5"/>
<line x1="359.5" y1="588" x2="359.5" stroke="#F5F5F5"/>
<line x1="389.5" y1="588" x2="389.5" stroke="#F5F5F5"/>
<line x1="419.5" y1="588" x2="419.5" stroke="#F5F5F5"/>
<line x1="449.5" y1="588" x2="449.5" stroke="#F5F5F5"/>
<line x1="479.5" y1="588" x2="479.5" stroke="#F5F5F5"/>
<line x1="509.5" y1="588" x2="509.5" stroke="#F5F5F5"/>
<line x1="539.5" y1="588" x2="539.5" stroke="#F5F5F5"/>
<line x1="569.5" y1="588" x2="569.5" stroke="#F5F5F5"/>
<line x1="599.5" y1="588" x2="599.5" stroke="#F5F5F5"/>
<line x1="629.5" y1="588" x2="629.5" stroke="#F5F5F5"/>
<line x1="659.5" y1="588" x2="659.5" stroke="#F5F5F5"/>
<line x1="689.5" y1="588" x2="689.5" stroke="#F5F5F5"/>
<line x1="719.5" y1="588" x2="719.5" stroke="#F5F5F5"/>
<line x1="749.5" y1="588" x2="749.5" stroke="#F5F5F5"/>
<line x1="779.5" y1="588" x2="779.5" stroke="#F5F5F5"/>
<line x1="809.5" y1="588" x2="809.5" stroke="#F5F5F5"/>
<line x1="839.5" y1="588" x2="839.5" stroke="#F5F5F5"/>
<line x1="869.5" y1="588" x2="869.5" stroke="#F5F5F5"/>
<line x1="899.5" y1="588" x2="899.5" stroke="#F5F5F5"/>
<line x1="929.5" y1="588" x2="929.5" stroke="#F5F5F5"/>
<line x1="959.5" y1="588" x2="959.5" stroke="#F5F5F5"/>
<line x1="989.5" y1="588" x2="989.5" stroke="#F5F5F5"/>
<line x1="1019.5" y1="588" x2="1019.5" stroke="#F5F5F5"/>
<line x1="1049.5" y1="588" x2="1049.5" stroke="#F5F5F5"/>
<line y1="60.3276" x2="1076" y2="60.3276" stroke="#F5F5F5"/>
<line y1="90.7415" x2="1076" y2="90.7415" stroke="#F5F5F5"/>
<line y1="121.155" x2="1076" y2="121.155" stroke="#F5F5F5"/>
<line y1="151.569" x2="1076" y2="151.569" stroke="#F5F5F5"/>
<line y1="181.983" x2="1076" y2="181.983" stroke="#F5F5F5"/>
<line y1="212.396" x2="1076" y2="212.396" stroke="#F5F5F5"/>
<line y1="242.81" x2="1076" y2="242.81" stroke="#F5F5F5"/>
<line y1="273.224" x2="1076" y2="273.224" stroke="#F5F5F5"/>
<line y1="303.638" x2="1076" y2="303.638" stroke="#F5F5F5"/>
<line y1="334.052" x2="1076" y2="334.052" stroke="#F5F5F5"/>
<line y1="364.466" x2="1076" y2="364.466" stroke="#F5F5F5"/>
<line y1="394.879" x2="1076" y2="394.879" stroke="#F5F5F5"/>
<line y1="425.293" x2="1076" y2="425.293" stroke="#F5F5F5"/>
<line y1="455.707" x2="1076" y2="455.707" stroke="#F5F5F5"/>
<line y1="486.121" x2="1076" y2="486.121" stroke="#F5F5F5"/>
<line y1="516.535" x2="1076" y2="516.535" stroke="#F5F5F5"/>
<line y1="546.948" x2="1076" y2="546.948" stroke="#F5F5F5"/>
<line y1="577.362" x2="1076" y2="577.362" stroke="#F5F5F5"/>
</svg>
