<svg width="331" height="58" viewBox="0 0 331 58" fill="none" xmlns="http://www.w3.org/2000/svg">
<rect x="1" y="1" width="329" height="43" rx="11" fill="white"/>
<path d="M11.5106 29C12.0893 28.412 12.6446 27.8473 13.1766 27.306C13.7086 26.7553 14.1846 26.228 14.6046 25.724C15.0339 25.2107 15.3699 24.716 15.6126 24.24C15.8646 23.764 15.9906 23.302 15.9906 22.854C15.9906 22.658 15.9533 22.4807 15.8786 22.322C15.8133 22.1633 15.7153 22.028 15.5846 21.916C15.4633 21.804 15.3139 21.72 15.1366 21.664C14.9686 21.5987 14.7773 21.566 14.5626 21.566C14.3479 21.566 14.1566 21.5987 13.9886 21.664C13.8206 21.72 13.6806 21.7993 13.5686 21.902C13.4566 22.0047 13.3679 22.1167 13.3026 22.238C13.2466 22.3593 13.2186 22.4853 13.2186 22.616C13.2186 22.9147 13.2653 23.1807 13.3586 23.414C13.4613 23.638 13.5966 23.8387 13.7646 24.016L12.5186 25.15C12.2479 25.0193 12.0146 24.8 11.8186 24.492C11.6319 24.184 11.4873 23.862 11.3846 23.526C11.2913 23.1807 11.2446 22.896 11.2446 22.672C11.2446 22.1587 11.3846 21.6687 11.6646 21.202C11.9539 20.7353 12.3693 20.3527 12.9106 20.054C13.4613 19.7553 14.1286 19.606 14.9126 19.606C15.5566 19.606 16.1166 19.7507 16.5926 20.04C17.0686 20.3293 17.4373 20.712 17.6986 21.188C17.9693 21.6547 18.1046 22.154 18.1046 22.686C18.1046 23.106 18.0393 23.512 17.9086 23.904C17.7779 24.296 17.5959 24.6833 17.3626 25.066C17.1386 25.4393 16.8819 25.8127 16.5926 26.186C16.3033 26.55 16.0046 26.9233 15.6966 27.306L14.7726 27.04H18.2166V29H11.5106ZM23.5927 29.014C23.0607 29.014 22.5567 28.9207 22.0807 28.734C21.6141 28.5473 21.1987 28.2627 20.8347 27.88C20.4801 27.488 20.2001 26.998 19.9947 26.41C19.7894 25.8127 19.6867 25.1127 19.6867 24.31C19.6867 23.414 19.7847 22.6673 19.9807 22.07C20.1767 21.4633 20.4474 20.978 20.7927 20.614C21.1474 20.25 21.5627 19.9933 22.0387 19.844C22.5147 19.6853 23.0327 19.606 23.5927 19.606C24.1247 19.606 24.6241 19.6993 25.0907 19.886C25.5667 20.0727 25.9821 20.362 26.3367 20.754C26.7007 21.1367 26.9854 21.6267 27.1907 22.224C27.3961 22.812 27.4987 23.5073 27.4987 24.31C27.4987 25.1407 27.3961 25.8547 27.1907 26.452C26.9854 27.0493 26.7007 27.5393 26.3367 27.922C25.9727 28.2953 25.5574 28.5707 25.0907 28.748C24.6241 28.9253 24.1247 29.014 23.5927 29.014ZM23.5787 27.068C24.0454 27.068 24.4094 26.9467 24.6707 26.704C24.9321 26.452 25.1141 26.1113 25.2167 25.682C25.3287 25.2527 25.3847 24.7767 25.3847 24.254C25.3847 23.7407 25.3287 23.2833 25.2167 22.882C25.1141 22.4807 24.9321 22.1633 24.6707 21.93C24.4094 21.6873 24.0454 21.566 23.5787 21.566C23.1214 21.566 22.7621 21.6873 22.5007 21.93C22.2394 22.1727 22.0574 22.4993 21.9547 22.91C21.8521 23.3207 21.8007 23.7827 21.8007 24.296C21.8007 24.8093 21.8521 25.276 21.9547 25.696C22.0574 26.116 22.2394 26.452 22.5007 26.704C22.7621 26.9467 23.1214 27.068 23.5787 27.068ZM29.0237 29C29.6024 28.412 30.1577 27.8473 30.6897 27.306C31.2217 26.7553 31.6977 26.228 32.1177 25.724C32.5471 25.2107 32.8831 24.716 33.1257 24.24C33.3777 23.764 33.5037 23.302 33.5037 22.854C33.5037 22.658 33.4664 22.4807 33.3917 22.322C33.3264 22.1633 33.2284 22.028 33.0977 21.916C32.9764 21.804 32.8271 21.72 32.6497 21.664C32.4817 21.5987 32.2904 21.566 32.0757 21.566C31.8611 21.566 31.6697 21.5987 31.5017 21.664C31.3337 21.72 31.1937 21.7993 31.0817 21.902C30.9697 22.0047 30.8811 22.1167 30.8157 22.238C30.7597 22.3593 30.7317 22.4853 30.7317 22.616C30.7317 22.9147 30.7784 23.1807 30.8717 23.414C30.9744 23.638 31.1097 23.8387 31.2777 24.016L30.0317 25.15C29.7611 25.0193 29.5277 24.8 29.3317 24.492C29.1451 24.184 29.0004 23.862 28.8977 23.526C28.8044 23.1807 28.7577 22.896 28.7577 22.672C28.7577 22.1587 28.8977 21.6687 29.1777 21.202C29.4671 20.7353 29.8824 20.3527 30.4237 20.054C30.9744 19.7553 31.6417 19.606 32.4257 19.606C33.0697 19.606 33.6297 19.7507 34.1057 20.04C34.5817 20.3293 34.9504 20.712 35.2117 21.188C35.4824 21.6547 35.6177 22.154 35.6177 22.686C35.6177 23.106 35.5524 23.512 35.4217 23.904C35.2911 24.296 35.1091 24.6833 34.8757 25.066C34.6517 25.4393 34.3951 25.8127 34.1057 26.186C33.8164 26.55 33.5177 26.9233 33.2097 27.306L32.2857 27.04H35.7297V29H29.0237ZM43.0938 19.718L40.9938 23.75L39.8878 23.148C39.9812 23.1107 40.0792 23.0827 40.1818 23.064C40.2938 23.0453 40.3965 23.036 40.4898 23.036C40.8165 23.0267 41.1432 23.064 41.4698 23.148C41.7965 23.232 42.0905 23.3813 42.3518 23.596C42.6225 23.8107 42.8372 24.1047 42.9958 24.478C43.1638 24.8513 43.2478 25.3273 43.2478 25.906C43.2478 26.578 43.0892 27.1567 42.7718 27.642C42.4638 28.118 42.0578 28.482 41.5538 28.734C41.0498 28.986 40.5038 29.112 39.9158 29.112C39.4585 29.112 38.9778 29.0187 38.4738 28.832C37.9698 28.636 37.5685 28.3793 37.2698 28.062L38.3058 26.382C38.4458 26.5593 38.6605 26.732 38.9498 26.9C39.2392 27.068 39.5425 27.152 39.8598 27.152C40.0652 27.152 40.2658 27.1007 40.4618 26.998C40.6578 26.8953 40.8212 26.7413 40.9518 26.536C41.0825 26.3307 41.1478 26.0787 41.1478 25.78C41.1478 25.3693 41.0312 25.0427 40.7978 24.8C40.5738 24.5573 40.2565 24.436 39.8458 24.436C39.5658 24.436 39.3512 24.45 39.2018 24.478C39.0618 24.4967 38.9218 24.5247 38.7818 24.562L38.7398 24.506L40.3778 21.44L40.9658 21.678H38.0398V19.718H43.0938ZM53.0834 17.198L54.1334 17.464C53.3634 19.536 52.1174 21.482 50.8154 22.742C50.6054 22.56 50.1714 22.21 49.9054 22.07C51.2354 20.908 52.3974 19.088 53.0834 17.198ZM52.8594 18.934H61.8894V19.956H52.3554L52.8594 18.934ZM52.1734 22.112H61.5814V23.092H53.2234V26.41H52.1734V22.112ZM49.8634 25.878H62.5474V26.9H49.8634V25.878ZM56.3734 19.466H57.4514V30.134H56.3734V19.466ZM66.4254 24.702H75.9594V25.626H66.4254V24.702ZM64.6194 19.648H73.7754V20.614H64.6194V19.648ZM68.5674 22.168H74.9794V23.106H68.5674V22.168ZM75.5114 24.702H76.5614C76.5614 24.702 76.5474 25.01 76.5194 25.164C76.2674 28.118 76.0014 29.28 75.5534 29.742C75.2874 30.008 75.0214 30.106 74.6014 30.134C74.2514 30.162 73.5514 30.148 72.8234 30.12C72.8094 29.826 72.6974 29.42 72.5294 29.14C73.2294 29.224 73.9014 29.224 74.1674 29.224C74.4334 29.224 74.5734 29.196 74.6994 29.084C75.0214 28.762 75.2874 27.656 75.5114 24.87V24.702ZM72.4034 26.382L73.1454 26.102C73.5934 26.676 74.0274 27.46 74.2094 27.964L73.4394 28.286C73.2574 27.782 72.8234 26.97 72.4034 26.382ZM66.3554 17.66L67.2654 17.282C67.8114 17.842 68.4274 18.64 68.7074 19.172L67.7274 19.62C67.4894 19.074 66.9014 18.248 66.3554 17.66ZM68.2594 26.732L69.1134 26.62C69.3934 27.502 69.5474 28.664 69.5474 29.42L68.6234 29.546C68.6514 28.79 68.4974 27.642 68.2594 26.732ZM70.3174 26.606L71.1434 26.41C71.5074 27.18 71.8574 28.174 71.9694 28.832L71.1014 29.07C71.0034 28.398 70.6674 27.376 70.3174 26.606ZM66.4674 26.41L67.3494 26.704C67.0274 27.866 66.5374 29.196 65.6834 30.05L64.8714 29.476C65.6554 28.734 66.1874 27.488 66.4674 26.41ZM70.5974 17.24L71.6614 17.506C70.3874 21.426 68.1894 25.122 64.4794 27.32C64.3534 27.068 64.0874 26.648 63.9054 26.424C67.3774 24.45 69.5334 20.866 70.5974 17.24ZM73.5374 19.648H74.5314C74.3354 20.614 74.0834 21.776 73.8734 22.532L72.9494 22.406C73.1454 21.664 73.3834 20.544 73.5374 19.648ZM74.5874 22.168H75.5814C75.3854 23.134 75.1474 24.31 74.9514 25.066L73.9994 24.954C74.2094 24.198 74.4474 23.064 74.5874 22.168ZM79.0114 21.482H82.7634V22.322H79.0114V21.482ZM79.0114 23.316H82.7634V24.156H79.0114V23.316ZM78.4234 19.62H83.0154V20.502H78.4234V19.62ZM79.4314 25.192H82.7774V29.28H79.4314V28.398H81.8674V26.074H79.4314V25.192ZM78.9974 25.192H79.9074V29.938H78.9974V25.192ZM79.7254 17.604L80.5374 17.184C80.9574 17.758 81.4054 18.5 81.6294 18.99L80.7754 19.494C80.5654 18.976 80.1034 18.178 79.7254 17.604ZM83.3794 19.998H91.2334V20.992H83.3794V19.998ZM83.2534 22.98H87.2014V23.918H83.2534V22.98ZM84.7234 23.47H85.6894V27.964L84.7234 28.076V23.47ZM83.0294 28.048C84.2054 27.782 85.9554 27.334 87.6634 26.886L87.7474 27.782C86.2074 28.244 84.5834 28.72 83.3234 29.07L83.0294 28.048ZM87.4394 17.282H88.4754C88.4054 23.806 89.1894 29.112 90.1134 29.112C90.3514 29.112 90.4634 28.398 90.5054 26.83C90.7294 27.04 91.0654 27.278 91.3034 27.376C91.1494 29.476 90.8554 30.134 89.9874 30.134C88.0414 30.134 87.4954 24.016 87.4394 17.282ZM88.8254 17.968L89.5674 17.534C90.0434 18.066 90.5894 18.794 90.8274 19.284L90.0574 19.788C89.8334 19.298 89.3014 18.528 88.8254 17.968ZM96.2594 24.114V25.29H101.831V24.114H96.2594ZM95.2794 23.4H102.867V26.018H95.2794V23.4ZM94.3554 26.844H104.029V30.134H102.993V27.628H95.3494V30.148H94.3554V26.844ZM94.9714 28.944H103.427V29.742H94.9714V28.944ZM93.1934 21.776H104.911V24.324H103.861V22.63H94.2154V24.324H93.1934V21.776ZM97.9954 17.926L98.8634 18.248C98.4434 18.78 97.9814 19.312 97.6034 19.662L96.9734 19.368C97.3234 18.962 97.7574 18.332 97.9954 17.926ZM95.4054 19.984L96.0354 19.41C96.8194 19.844 97.8694 20.502 98.4154 20.908L97.7714 21.58C97.2394 21.16 96.2034 20.474 95.4054 19.984ZM95.7134 17.24H96.6514C96.4974 19.788 95.8954 21.062 93.1934 21.776C93.1094 21.538 92.8574 21.188 92.6614 21.006C95.1254 20.446 95.5874 19.438 95.7134 17.24ZM104.155 17.884L105.065 18.234C104.603 18.78 104.085 19.326 103.693 19.704L103.021 19.396C103.413 18.976 103.903 18.318 104.155 17.884ZM101.355 19.984L101.957 19.354C102.979 19.858 104.365 20.628 105.079 21.132L104.449 21.874C103.763 21.356 102.391 20.544 101.355 19.984ZM101.635 17.24H102.601C102.447 19.704 101.845 20.992 99.1854 21.678C99.1014 21.454 98.8494 21.076 98.6394 20.894C101.033 20.334 101.509 19.34 101.635 17.24ZM93.0954 18.066L93.7254 17.604C94.1174 18.024 94.6074 18.598 94.8454 18.934L94.1874 19.48C93.9494 19.116 93.4734 18.5 93.0954 18.066ZM99.0454 17.982L99.6754 17.52C100.081 17.94 100.557 18.5 100.795 18.85L100.137 19.396C99.8994 19.018 99.4234 18.416 99.0454 17.982ZM97.9954 25.486L98.9054 25.836C98.6254 26.368 98.3594 26.928 98.1354 27.306L97.4074 27.026C97.6034 26.592 97.8834 25.92 97.9954 25.486ZM114.473 19.13H115.495V28.342H114.473V19.13ZM112.373 23.806V24.758H117.651V23.806H112.373ZM112.373 22.196V23.12H117.651V22.196H112.373ZM111.491 21.482H118.575V25.472H111.491V21.482ZM110.707 17.744H119.233V20.25H118.211V18.556H111.687V20.25H110.707V17.744ZM111.785 19.844H118.225V20.628H111.785V19.844ZM110.791 26.368H119.401V27.194H110.791V26.368ZM107.487 17.702L108.285 17.254C108.887 17.94 109.615 18.85 109.965 19.424L109.125 19.97C108.789 19.382 108.061 18.402 107.487 17.702ZM106.969 20.488H109.923V21.37H106.969V20.488ZM109.461 26.9C110.329 28.734 112.149 28.986 114.949 28.986C116.433 28.986 118.477 28.93 119.919 28.804C119.765 29.028 119.639 29.504 119.583 29.784C118.253 29.868 116.489 29.896 114.949 29.896C111.659 29.896 109.825 29.532 108.761 27.222L109.461 26.9ZM109.461 23.974H109.769L109.951 23.946L110.427 24.142C109.979 27.082 108.901 29.07 107.445 30.148C107.305 29.938 106.955 29.574 106.745 29.42C108.131 28.468 109.111 26.676 109.461 24.156V23.974ZM107.179 25.024V24.226L107.683 23.974H109.895V24.828H108.005C107.641 24.828 107.277 24.912 107.179 25.024ZM107.179 25.024C107.109 24.786 106.899 24.296 106.787 24.072C106.997 24.016 107.221 23.932 107.459 23.652C107.879 23.232 109.167 21.328 109.629 20.586V20.544L109.937 20.404L110.623 20.726C109.979 21.678 108.747 23.47 107.963 24.366C107.963 24.366 107.179 24.758 107.179 25.024ZM121.683 17.828H124.945V18.78H122.635V30.106H121.683V17.828ZM124.693 17.828H124.875L125.029 17.786L125.715 18.192C125.281 19.354 124.721 20.726 124.217 21.818C125.309 22.994 125.561 24.002 125.575 24.898C125.575 25.654 125.393 26.242 125.001 26.522C124.791 26.662 124.553 26.746 124.245 26.788C123.965 26.816 123.601 26.816 123.279 26.802C123.265 26.55 123.181 26.144 123.027 25.864C123.349 25.906 123.643 25.92 123.867 25.892C124.049 25.878 124.203 25.85 124.329 25.766C124.553 25.612 124.637 25.22 124.637 24.8C124.637 24.016 124.343 23.05 123.251 21.93C123.811 20.684 124.357 19.06 124.693 18.094V17.828ZM126.779 19.13H129.397V20.026H126.779V19.13ZM129.957 17.338H130.993V21.986C130.993 22.364 131.049 22.42 131.427 22.42C131.595 22.42 132.477 22.42 132.687 22.42C133.023 22.42 133.093 22.21 133.121 20.964C133.345 21.118 133.751 21.286 134.031 21.356C133.933 22.924 133.667 23.344 132.799 23.344C132.561 23.344 131.483 23.344 131.273 23.344C130.223 23.344 129.957 23.05 129.957 21.986V17.338ZM129.005 23.078L130.139 23.344C129.817 23.932 129.495 24.562 129.215 24.982L128.403 24.716C128.613 24.254 128.879 23.554 129.005 23.078ZM126.429 24.352H133.107V30.092H132.029V25.22H127.465V30.148H126.429V24.352ZM126.947 26.55H132.561V27.362H126.947V26.55ZM126.947 28.762H132.519V29.616H126.947V28.762ZM126.079 23.61L126.009 22.77L126.485 22.406L129.383 21.72C129.397 21.986 129.467 22.364 129.523 22.56C126.751 23.288 126.345 23.428 126.079 23.61ZM126.079 23.61C126.037 23.33 125.883 22.84 125.729 22.602C125.953 22.546 126.177 22.448 126.177 21.958V17.338H127.213V22.896C127.213 22.896 126.079 23.26 126.079 23.61ZM130.335 19.13H133.709V20.04H130.335V19.13ZM143.019 17.772H145.651V18.682H143.019V17.772ZM141.409 23.596H146.477V24.52H141.409V23.596ZM136.929 20.67H140.709V21.594H136.929V20.67ZM136.943 23.526H140.695V24.464H136.943V23.526ZM142.739 24.436C143.649 26.774 145.609 28.538 148.325 29.196C148.101 29.406 147.807 29.812 147.667 30.092C144.853 29.28 142.893 27.362 141.885 24.66L142.739 24.436ZM135.347 26.816C136.733 26.634 138.847 26.312 140.919 26.004L140.961 26.914C139.029 27.25 136.985 27.572 135.515 27.81L135.347 26.816ZM140.233 17.17L141.101 17.954C139.925 18.486 138.287 18.962 136.915 19.298C136.845 19.074 136.677 18.724 136.551 18.5C137.881 18.15 139.379 17.618 140.233 17.17ZM142.417 17.758H143.383V19.48C143.383 20.74 143.075 22.308 141.549 23.33C141.395 23.134 141.017 22.784 140.807 22.644C142.193 21.72 142.417 20.488 142.417 19.466V17.758ZM146.253 23.596H146.463L146.645 23.568L147.289 23.792C146.393 27.502 143.999 29.308 140.933 30.176C140.835 29.91 140.597 29.49 140.387 29.28C143.201 28.608 145.511 26.9 146.253 23.778V23.596ZM136.537 18.486L137.545 18.836V29.924H136.537V18.486ZM145.343 17.758H146.323V21.328C146.323 21.692 146.365 21.804 146.561 21.804C146.715 21.804 147.331 21.804 147.513 21.804C147.695 21.804 147.989 21.79 148.157 21.748C148.185 21.986 148.199 22.35 148.241 22.56C148.073 22.616 147.793 22.616 147.527 22.616C147.331 22.616 146.631 22.616 146.463 22.616C145.525 22.616 145.343 22.266 145.343 21.3V17.758ZM155.017 26.368L154.695 25.626C155.843 25.164 156.473 24.45 156.473 23.386L156.207 22.21L156.963 23.274C156.767 23.526 156.487 23.596 156.221 23.596C155.647 23.596 155.171 23.246 155.171 22.588C155.171 21.93 155.675 21.58 156.235 21.58C157.019 21.58 157.439 22.224 157.439 23.204C157.439 24.716 156.487 25.864 155.017 26.368ZM169.927 19.564H176.339V20.446H169.927V27.404H168.961V20.488L169.829 19.564H169.927ZM169.423 21.86H175.961V22.7H169.423V21.86ZM169.451 24.156H175.961V24.996H169.451V24.156ZM169.423 26.508H176.661V27.404H169.423V26.508ZM172.377 19.928H173.315V26.956H172.377V19.928ZM170.067 17.338L170.963 17.59C170.235 19.634 169.101 21.692 167.883 23.036C167.771 22.84 167.477 22.406 167.295 22.21C168.415 21.006 169.437 19.172 170.067 17.338ZM171.999 17.702L172.867 17.45C173.301 18.136 173.763 19.06 173.945 19.648L173.021 19.942C172.853 19.368 172.405 18.416 171.999 17.702ZM164.607 17.73L165.391 17.268C166.035 17.94 166.805 18.836 167.197 19.41L166.385 19.984C166.007 19.396 165.223 18.416 164.607 17.73ZM164.103 20.474H167.169V21.356H164.103V20.474ZM166.595 26.9C167.463 28.734 169.283 28.986 172.069 28.986C173.539 28.986 175.597 28.916 177.025 28.804C176.871 29.028 176.731 29.518 176.675 29.812C175.359 29.882 173.595 29.924 172.055 29.924C168.779 29.924 166.945 29.532 165.895 27.222L166.595 26.9ZM166.791 23.974H167.029L167.211 23.946L167.743 24.142C167.253 27.138 166.091 29.112 164.523 30.162C164.383 29.938 164.033 29.588 163.837 29.434C165.321 28.496 166.399 26.718 166.791 24.156V23.974ZM164.299 25.024V24.226L164.803 23.974H167.141L167.127 24.828H165.125C164.761 24.828 164.397 24.912 164.299 25.024ZM164.299 25.024C164.229 24.786 164.019 24.296 163.907 24.072C164.117 24.016 164.341 23.932 164.579 23.652C165.027 23.218 166.399 21.328 166.875 20.586V20.544L167.197 20.404L167.897 20.74C167.211 21.692 165.909 23.47 165.083 24.366C165.083 24.366 164.299 24.758 164.299 25.024ZM184.459 19.914H190.969V20.852H184.459V19.914ZM184.207 28.72H191.207V29.672H184.207V28.72ZM184.851 24.086H190.647V25.024H184.851V24.086ZM187.119 20.432H188.183V29.056H187.119V20.432ZM186.349 17.618L187.189 17.226C187.651 17.87 188.225 18.738 188.505 19.242L187.623 19.732C187.371 19.186 186.797 18.29 186.349 17.618ZM179.489 19.97H183.731V20.81H179.489V19.97ZM179.489 22.14H183.731V22.98H179.489V22.14ZM181.281 18.346H182.163V24.688H181.281V18.346ZM181.813 25.766L182.303 25.584C182.653 26.144 182.989 26.914 183.129 27.39L182.583 27.6C182.471 27.096 182.135 26.34 181.813 25.766ZM180.861 25.99L181.393 25.878C181.673 26.606 181.897 27.53 181.953 28.118L181.393 28.258C181.337 27.656 181.113 26.704 180.861 25.99ZM179.867 26.116L180.427 26.046C180.581 26.872 180.665 27.936 180.651 28.622L180.063 28.706C180.091 27.992 180.007 26.956 179.867 26.116ZM178.845 25.906L179.475 26.116C179.363 27.054 179.167 28.454 178.915 29.308L178.243 29.042C178.509 28.216 178.733 26.83 178.845 25.906ZM183.255 24.296H184.165C184.165 24.296 184.165 24.59 184.137 24.73C183.983 28.076 183.815 29.266 183.465 29.672C183.241 29.938 183.017 30.022 182.667 30.05C182.387 30.078 181.869 30.078 181.351 30.05C181.323 29.798 181.239 29.434 181.099 29.196C181.617 29.252 182.093 29.252 182.289 29.252C182.485 29.252 182.597 29.224 182.695 29.084C182.947 28.818 183.115 27.642 183.255 24.464V24.296ZM184.025 17.828V18.696H179.839V24.296H183.619V25.164H178.957V17.828H184.025ZM202.449 18.556H203.541V28.622C203.541 29.378 203.359 29.742 202.813 29.91C202.253 30.092 201.273 30.106 199.887 30.106C199.817 29.798 199.607 29.28 199.439 28.972C200.573 29.028 201.707 29.014 202.043 29C202.351 28.986 202.449 28.888 202.449 28.594V18.556ZM194.217 21.356H195.239V27.698H194.217V21.356ZM194.651 21.356H199.957V26.578H194.651V25.57H198.907V22.35H194.651V21.356ZM192.775 18.234H205.263V19.298H192.775V18.234ZM207.041 26.508H219.543V27.432H207.041V26.508ZM208.357 23.96H217.191V24.814H208.357V23.96ZM212.711 25.668H213.803V29.056C213.803 29.63 213.635 29.882 213.145 30.022C212.655 30.162 211.843 30.148 210.583 30.148C210.527 29.882 210.359 29.532 210.219 29.28C211.171 29.308 212.137 29.308 212.375 29.294C212.627 29.28 212.711 29.224 212.711 29.028V25.668ZM216.953 23.96H217.247L217.471 23.904L218.185 24.506C216.841 25.262 214.965 25.906 213.243 26.284C213.117 26.088 212.865 25.822 212.711 25.668C214.237 25.332 216.029 24.73 216.953 24.17V23.96ZM209.981 21.062V22.322H216.603V21.062H209.981ZM208.945 20.278H217.695V23.106H208.945V20.278ZM207.167 18.472H219.361V19.382H207.167V18.472ZM212.319 17.352L213.369 17.142C213.677 17.674 213.999 18.388 214.111 18.85L213.019 19.088C212.893 18.626 212.599 17.898 212.319 17.352ZM221.447 19.06H233.711V20.054H221.447V19.06ZM224.751 24.058H231.415V24.968H224.751V24.058ZM231.037 21.678H232.059V28.818C232.059 29.434 231.933 29.756 231.457 29.924C231.009 30.092 230.225 30.092 229.021 30.092C228.979 29.798 228.825 29.364 228.671 29.07C229.609 29.112 230.463 29.098 230.715 29.098C230.953 29.084 231.037 29.014 231.037 28.804V21.678ZM226.025 17.24L227.089 17.492C226.151 20.53 224.471 23.61 221.839 25.472C221.699 25.234 221.363 24.856 221.167 24.66C223.631 22.952 225.269 20.012 226.025 17.24ZM224.667 26.424H231.415V27.334H224.667V26.424ZM224.681 21.678H231.331V22.63H224.681V21.678ZM224.121 21.678H225.171V25.388C225.171 26.942 224.933 28.916 223.561 30.204C223.421 29.966 223.029 29.532 222.819 29.378C223.995 28.258 224.121 26.704 224.121 25.374V21.678ZM235.909 17.66H239.269V19.158H237.379V30.218H235.909V17.66ZM238.975 17.66H239.255L239.493 17.604L240.585 18.22C240.221 19.41 239.773 20.81 239.367 21.902C240.221 23.008 240.389 24.002 240.389 24.828C240.389 25.738 240.207 26.34 239.759 26.676C239.549 26.844 239.269 26.942 238.961 26.984C238.709 27.026 238.373 27.026 238.051 27.026C238.051 26.62 237.911 25.99 237.687 25.584C237.925 25.598 238.121 25.612 238.303 25.598C238.429 25.584 238.569 25.556 238.681 25.486C238.835 25.36 238.919 25.052 238.919 24.646C238.919 23.974 238.751 23.05 237.939 22.07C238.345 20.838 238.779 19.004 238.975 18.136V17.66ZM241.775 17.674H247.361V24.128H241.775V22.686H245.737V19.116H241.775V17.674ZM241.901 20.208H246.647V21.566H241.901V20.208ZM244.701 23.274C245.247 25.752 246.423 27.824 248.495 28.762C248.117 29.084 247.613 29.756 247.361 30.204C245.121 28.972 243.987 26.578 243.343 23.526L244.701 23.274ZM247.095 24.268L248.187 25.458C247.403 26.06 246.465 26.732 245.765 27.138L244.883 26.102C245.555 25.668 246.535 24.87 247.095 24.268ZM241.061 30.302L240.907 28.846L241.593 28.314L244.603 27.656C244.589 28.132 244.617 28.818 244.673 29.182C241.915 29.882 241.383 30.078 241.061 30.302ZM241.061 30.302C240.935 29.924 240.585 29.266 240.347 28.986C240.627 28.804 240.991 28.412 240.991 27.768V17.674H242.629V28.776C242.629 28.776 241.061 29.7 241.061 30.302ZM252.247 21.412H259.989V23.022H252.247V21.412ZM256.111 24.702H260.843V26.27H256.111V24.702ZM255.229 22.266H256.993V29.028L255.229 28.818V22.266ZM251.939 23.68L253.647 23.848C253.283 26.704 252.443 28.902 250.833 30.288C250.567 29.98 249.867 29.406 249.475 29.154C251.001 28.034 251.701 26.088 251.939 23.68ZM253.297 25.402C254.193 27.978 256.153 28.37 258.645 28.384C259.387 28.384 261.725 28.384 262.663 28.342C262.425 28.748 262.145 29.546 262.061 30.05H258.547C255.313 30.05 253.129 29.406 251.925 25.864L253.297 25.402ZM250.105 18.598H262.145V22.112H260.409V20.18H251.757V22.112H250.105V18.598ZM254.837 17.436L256.517 16.96C256.853 17.562 257.203 18.346 257.343 18.878L255.565 19.41C255.453 18.906 255.159 18.066 254.837 17.436ZM267.955 17.674H276.677V18.878H267.955V17.674ZM269.677 20.6H274.955V21.286H269.677V20.6ZM269.677 21.72H274.955V22.406H269.677V21.72ZM268.823 19.368H275.781V23.26H274.213V20.194H270.321V23.26H268.823V19.368ZM267.549 22.854H276.971V24.856H275.473V23.792H268.963V24.856H267.549V22.854ZM269.537 24.03L270.517 24.548C270.181 25.094 269.691 25.724 269.117 26.116L268.193 25.388C268.711 25.08 269.229 24.52 269.537 24.03ZM270.195 24.086H271.525V24.73C271.525 25.01 271.595 25.052 271.973 25.052C272.141 25.052 272.981 25.052 273.219 25.052C273.485 25.052 273.555 24.982 273.611 24.576C273.849 24.716 274.339 24.856 274.661 24.898C274.549 25.71 274.227 25.948 273.401 25.948C273.121 25.948 272.057 25.948 271.777 25.948C270.517 25.948 270.195 25.682 270.195 24.73V24.086ZM271.525 24.016L272.435 23.54C272.813 23.806 273.289 24.226 273.541 24.492L272.603 25.038C272.365 24.758 271.903 24.324 271.525 24.016ZM273.961 24.506L274.829 23.988C275.347 24.464 275.977 25.136 276.299 25.584L275.389 26.158C275.095 25.71 274.479 25.01 273.961 24.506ZM270.853 25.542L272.267 25.822C271.357 26.97 270.125 27.936 268.389 28.72C268.207 28.412 267.773 27.964 267.479 27.768C269.061 27.166 270.195 26.326 270.853 25.542ZM274.339 26.368H274.647L274.927 26.312L275.935 26.858C274.717 28.706 271.959 29.812 268.039 30.316C267.885 29.952 267.549 29.434 267.255 29.112C270.951 28.748 273.513 27.852 274.339 26.606V26.368ZM269.355 26.228C270.657 27.908 273.471 28.776 276.943 29.028C276.663 29.322 276.313 29.882 276.145 30.26C272.519 29.882 269.733 28.804 268.137 26.648L269.355 26.228ZM270.587 26.368H274.731V27.362H269.593L270.587 26.368ZM271.357 18.234L273.177 18.43C272.925 19.032 272.687 19.564 272.505 19.956L271.063 19.718C271.175 19.256 271.315 18.654 271.357 18.234ZM266.317 17.142L267.871 17.59C267.087 20.04 265.827 22.7 264.427 24.38C264.287 23.96 263.881 23.008 263.615 22.56C264.721 21.23 265.729 19.186 266.317 17.142ZM265.309 20.978L266.863 19.438L266.905 19.466V30.246H265.309V20.978ZM278.595 17.786H290.691V19.102H278.595V17.786ZM283.691 17.114H285.413V25.206H283.691V17.114ZM281.003 22.252V22.882H288.059V22.252H281.003ZM281.003 20.698V21.328H288.059V20.698H281.003ZM279.421 19.718H289.725V23.89H279.421V19.718ZM286.533 24.324L287.681 23.554C288.801 24.072 290.117 24.968 290.789 25.64L289.627 26.536C288.955 25.822 287.653 24.87 286.533 24.324ZM278.637 24.674C281.269 24.688 285.413 24.688 289.249 24.646L289.165 25.92C285.399 26.004 281.367 26.06 278.707 26.074L278.637 24.674ZM281.241 26.662H282.907V28.244C282.907 28.636 283.047 28.678 283.859 28.678C284.223 28.678 285.819 28.678 286.309 28.678C286.939 28.678 287.065 28.524 287.121 27.46C287.485 27.684 288.143 27.908 288.577 27.992C288.381 29.644 287.919 30.036 286.449 30.036C286.029 30.036 284.111 30.036 283.705 30.036C281.745 30.036 281.241 29.63 281.241 28.258V26.662ZM283.369 26.592L284.461 25.71C285.217 26.158 286.155 26.844 286.603 27.348L285.455 28.328C285.049 27.81 284.125 27.068 283.369 26.592ZM288.087 27.068L289.543 26.592C290.187 27.432 290.817 28.552 291.013 29.35L289.459 29.854C289.277 29.098 288.703 27.936 288.087 27.068ZM279.463 26.522L280.919 27.124C280.611 28.034 280.163 29.126 279.617 29.868L278.161 29.042C278.707 28.398 279.197 27.376 279.463 26.522ZM296.403 17.73H305.419V18.948H296.403V17.73ZM298.111 20.53V21.482H303.459V20.53H298.111ZM296.669 19.55H304.985V22.448H296.669V19.55ZM298.979 18.178H300.295V21.888H298.979V18.178ZM301.219 18.178H302.563V21.888H301.219V18.178ZM298.433 25.29V25.808H303.207V25.29H298.433ZM298.433 26.704V27.236H303.207V26.704H298.433ZM298.433 23.876V24.394H303.207V23.876H298.433ZM296.879 22.938H304.845V28.174H296.879V22.938ZM301.261 28.958L302.339 28.034C303.529 28.426 304.929 28.972 305.741 29.364L304.299 30.302C303.613 29.896 302.409 29.35 301.261 28.958ZM299.175 28.006L300.337 28.846C299.413 29.49 297.999 30.008 296.753 30.274C296.571 29.938 296.179 29.42 295.885 29.14C297.089 28.902 298.405 28.468 299.175 28.006ZM294.891 17.142L296.445 17.59C295.647 20.04 294.359 22.7 292.931 24.38C292.791 23.96 292.385 23.008 292.119 22.56C293.253 21.244 294.289 19.186 294.891 17.142ZM293.785 20.978L295.339 19.438L295.381 19.466V30.246H293.785V20.978ZM312.783 25.626L312.503 20.194L312.461 18.528H314.015L313.973 20.194L313.693 25.626H312.783ZM313.245 29.07C312.741 29.07 312.335 28.72 312.335 28.16C312.335 27.6 312.741 27.222 313.245 27.222C313.735 27.222 314.141 27.6 314.141 28.16C314.141 28.72 313.735 29.07 313.245 29.07Z" fill="#363636"/>
<rect x="1" y="1" width="329" height="43" rx="11" stroke="#363636" stroke-width="2"/>
<path d="M34.0382 44L27.5 55.9206L20.9618 44H34.0382Z" fill="white" stroke="#363636" stroke-width="2"/>
<path d="M22.6001 44H32.3001" stroke="white" stroke-width="2"/>
</svg>
