<svg width="386" height="69" viewBox="0 0 386 69" fill="none" xmlns="http://www.w3.org/2000/svg">
<rect x="1" y="1" width="384" height="54" rx="11" fill="white"/>
<path d="M17.0121 35C17.6735 34.328 18.3081 33.6827 18.9161 33.064C19.5241 32.4347 20.0681 31.832 20.5481 31.256C21.0388 30.6693 21.4228 30.104 21.7001 29.56C21.9881 29.016 22.1321 28.488 22.1321 27.976C22.1321 27.752 22.0895 27.5493 22.0041 27.368C21.9295 27.1867 21.8175 27.032 21.6681 26.904C21.5295 26.776 21.3588 26.68 21.1561 26.616C20.9641 26.5413 20.7455 26.504 20.5001 26.504C20.2548 26.504 20.0361 26.5413 19.8441 26.616C19.6521 26.68 19.4921 26.7707 19.3641 26.888C19.2361 27.0053 19.1348 27.1333 19.0601 27.272C18.9961 27.4107 18.9641 27.5547 18.9641 27.704C18.9641 28.0453 19.0175 28.3493 19.1241 28.616C19.2415 28.872 19.3961 29.1013 19.5881 29.304L18.1641 30.6C17.8548 30.4507 17.5881 30.2 17.3641 29.848C17.1508 29.496 16.9855 29.128 16.8681 28.744C16.7615 28.3493 16.7081 28.024 16.7081 27.768C16.7081 27.1813 16.8681 26.6213 17.1881 26.088C17.5188 25.5547 17.9935 25.1173 18.6121 24.776C19.2415 24.4347 20.0041 24.264 20.9001 24.264C21.6361 24.264 22.2761 24.4293 22.8201 24.76C23.3641 25.0907 23.7855 25.528 24.0841 26.072C24.3935 26.6053 24.5481 27.176 24.5481 27.784C24.5481 28.264 24.4735 28.728 24.3241 29.176C24.1748 29.624 23.9668 30.0667 23.7001 30.504C23.4441 30.9307 23.1508 31.3573 22.8201 31.784C22.4895 32.2 22.1481 32.6267 21.7961 33.064L20.7401 32.76H24.6761V35H17.0121ZM30.8203 35.016C30.2123 35.016 29.6363 34.9093 29.0923 34.696C28.5589 34.4827 28.0843 34.1573 27.6683 33.72C27.2629 33.272 26.9429 32.712 26.7083 32.04C26.4736 31.3573 26.3563 30.5573 26.3563 29.64C26.3563 28.616 26.4683 27.7627 26.6923 27.08C26.9163 26.3867 27.2256 25.832 27.6203 25.416C28.0256 25 28.5003 24.7067 29.0443 24.536C29.5883 24.3547 30.1803 24.264 30.8203 24.264C31.4283 24.264 31.9989 24.3707 32.5323 24.584C33.0763 24.7973 33.5509 25.128 33.9563 25.576C34.3723 26.0133 34.6976 26.5733 34.9323 27.256C35.1669 27.928 35.2843 28.7227 35.2843 29.64C35.2843 30.5893 35.1669 31.4053 34.9323 32.088C34.6976 32.7707 34.3723 33.3307 33.9563 33.768C33.5403 34.1947 33.0656 34.5093 32.5323 34.712C31.9989 34.9147 31.4283 35.016 30.8203 35.016ZM30.8043 32.792C31.3376 32.792 31.7536 32.6533 32.0523 32.376C32.3509 32.088 32.5589 31.6987 32.6763 31.208C32.8043 30.7173 32.8683 30.1733 32.8683 29.576C32.8683 28.9893 32.8043 28.4667 32.6763 28.008C32.5589 27.5493 32.3509 27.1867 32.0523 26.92C31.7536 26.6427 31.3376 26.504 30.8043 26.504C30.2816 26.504 29.8709 26.6427 29.5723 26.92C29.2736 27.1973 29.0656 27.5707 28.9483 28.04C28.8309 28.5093 28.7723 29.0373 28.7723 29.624C28.7723 30.2107 28.8309 30.744 28.9483 31.224C29.0656 31.704 29.2736 32.088 29.5723 32.376C29.8709 32.6533 30.2816 32.792 30.8043 32.792ZM37.0271 35C37.6885 34.328 38.3231 33.6827 38.9311 33.064C39.5391 32.4347 40.0831 31.832 40.5631 31.256C41.0538 30.6693 41.4378 30.104 41.7151 29.56C42.0031 29.016 42.1471 28.488 42.1471 27.976C42.1471 27.752 42.1045 27.5493 42.0191 27.368C41.9445 27.1867 41.8325 27.032 41.6831 26.904C41.5445 26.776 41.3738 26.68 41.1711 26.616C40.9791 26.5413 40.7605 26.504 40.5151 26.504C40.2698 26.504 40.0511 26.5413 39.8591 26.616C39.6671 26.68 39.5071 26.7707 39.3791 26.888C39.2511 27.0053 39.1498 27.1333 39.0751 27.272C39.0111 27.4107 38.9791 27.5547 38.9791 27.704C38.9791 28.0453 39.0325 28.3493 39.1391 28.616C39.2565 28.872 39.4111 29.1013 39.6031 29.304L38.1791 30.6C37.8698 30.4507 37.6031 30.2 37.3791 29.848C37.1658 29.496 37.0005 29.128 36.8831 28.744C36.7765 28.3493 36.7231 28.024 36.7231 27.768C36.7231 27.1813 36.8831 26.6213 37.2031 26.088C37.5338 25.5547 38.0085 25.1173 38.6271 24.776C39.2565 24.4347 40.0191 24.264 40.9151 24.264C41.6511 24.264 42.2911 24.4293 42.8351 24.76C43.3791 25.0907 43.8005 25.528 44.0991 26.072C44.4085 26.6053 44.5631 27.176 44.5631 27.784C44.5631 28.264 44.4885 28.728 44.3391 29.176C44.1898 29.624 43.9818 30.0667 43.7151 30.504C43.4591 30.9307 43.1658 31.3573 42.8351 31.784C42.5045 32.2 42.1631 32.6267 41.8111 33.064L40.7551 32.76H44.6911V35H37.0271ZM53.1073 24.392L50.7073 29L49.4433 28.312C49.5499 28.2693 49.6619 28.2373 49.7793 28.216C49.9073 28.1947 50.0246 28.184 50.1313 28.184C50.5046 28.1733 50.8779 28.216 51.2513 28.312C51.6246 28.408 51.9606 28.5787 52.2593 28.824C52.5686 29.0693 52.8139 29.4053 52.9953 29.832C53.1873 30.2587 53.2833 30.8027 53.2833 31.464C53.2833 32.232 53.1019 32.8933 52.7393 33.448C52.3873 33.992 51.9233 34.408 51.3473 34.696C50.7713 34.984 50.1473 35.128 49.4753 35.128C48.9526 35.128 48.4033 35.0213 47.8273 34.808C47.2513 34.584 46.7926 34.2907 46.4513 33.928L47.6353 32.008C47.7953 32.2107 48.0406 32.408 48.3713 32.6C48.7019 32.792 49.0486 32.888 49.4113 32.888C49.6459 32.888 49.8753 32.8293 50.0993 32.712C50.3233 32.5947 50.5099 32.4187 50.6593 32.184C50.8086 31.9493 50.8833 31.6613 50.8833 31.32C50.8833 30.8507 50.7499 30.4773 50.4833 30.2C50.2273 29.9227 49.8646 29.784 49.3953 29.784C49.0753 29.784 48.8299 29.8 48.6593 29.832C48.4993 29.8533 48.3393 29.8853 48.1793 29.928L48.1313 29.864L50.0033 26.36L50.6753 26.632H47.3313V24.392H53.1073ZM64.0599 21.352L66.0119 21.848C65.1639 24.232 63.7559 26.536 62.3319 27.976C61.9639 27.64 61.1479 27 60.6839 26.728C62.1239 25.48 63.3719 23.432 64.0599 21.352ZM64.3959 23.176H74.5719V25.032H63.4679L64.3959 23.176ZM63.2599 26.952H74.2039V28.744H65.1959V32.104H63.2599V26.952ZM60.7319 31.16H75.4519V33.016H60.7319V31.16ZM67.9639 24.136H69.9479V36.44H67.9639V24.136ZM79.7719 30.088H90.6679V31.144H79.7719V30.088ZM77.7079 24.312H88.1719V25.416H77.7079V24.312ZM82.2199 27.192H89.5479V28.264H82.2199V27.192ZM90.1559 30.088H91.3559C91.3559 30.088 91.3399 30.44 91.3079 30.616C91.0199 33.992 90.7159 35.32 90.2039 35.848C89.8999 36.152 89.5959 36.264 89.1159 36.296C88.7159 36.328 87.9159 36.312 87.0839 36.28C87.0679 35.944 86.9399 35.48 86.7479 35.16C87.5479 35.256 88.3159 35.256 88.6199 35.256C88.9239 35.256 89.0839 35.224 89.2279 35.096C89.5959 34.728 89.8999 33.464 90.1559 30.28V30.088ZM86.6039 32.008L87.4519 31.688C87.9639 32.344 88.4599 33.24 88.6679 33.816L87.7879 34.184C87.5799 33.608 87.0839 32.68 86.6039 32.008ZM79.6919 22.04L80.7319 21.608C81.3559 22.248 82.0599 23.16 82.3799 23.768L81.2599 24.28C80.9879 23.656 80.3159 22.712 79.6919 22.04ZM81.8679 32.408L82.8439 32.28C83.1639 33.288 83.3399 34.616 83.3399 35.48L82.2839 35.624C82.3159 34.76 82.1399 33.448 81.8679 32.408ZM84.2199 32.264L85.1639 32.04C85.5799 32.92 85.9799 34.056 86.1079 34.808L85.1159 35.08C85.0039 34.312 84.6199 33.144 84.2199 32.264ZM79.8199 32.04L80.8279 32.376C80.4599 33.704 79.8999 35.224 78.9239 36.2L77.9959 35.544C78.8919 34.696 79.4999 33.272 79.8199 32.04ZM84.5399 21.56L85.7559 21.864C84.2999 26.344 81.7879 30.568 77.5479 33.08C77.4039 32.792 77.0999 32.312 76.8919 32.056C80.8599 29.8 83.3239 25.704 84.5399 21.56ZM87.8999 24.312H89.0359C88.8119 25.416 88.5239 26.744 88.2839 27.608L87.2279 27.464C87.4519 26.616 87.7239 25.336 87.8999 24.312ZM89.0999 27.192H90.2359C90.0119 28.296 89.7399 29.64 89.5159 30.504L88.4279 30.376C88.6679 29.512 88.9399 28.216 89.0999 27.192ZM94.1559 26.408H98.4439V27.368H94.1559V26.408ZM94.1559 28.504H98.4439V29.464H94.1559V28.504ZM93.4839 24.28H98.7319V25.288H93.4839V24.28ZM94.6359 30.648H98.4599V35.32H94.6359V34.312H97.4199V31.656H94.6359V30.648ZM94.1399 30.648H95.1799V36.072H94.1399V30.648ZM94.9719 21.976L95.8999 21.496C96.3799 22.152 96.8919 23 97.1479 23.56L96.1719 24.136C95.9319 23.544 95.4039 22.632 94.9719 21.976ZM99.1479 24.712H108.124V25.848H99.1479V24.712ZM99.0039 28.12H103.516V29.192H99.0039V28.12ZM100.684 28.68H101.788V33.816L100.684 33.944V28.68ZM98.7479 33.912C100.092 33.608 102.092 33.096 104.044 32.584L104.14 33.608C102.38 34.136 100.524 34.68 99.0839 35.08L98.7479 33.912ZM103.788 21.608H104.972C104.892 29.064 105.788 35.128 106.844 35.128C107.116 35.128 107.244 34.312 107.292 32.52C107.548 32.76 107.932 33.032 108.204 33.144C108.028 35.544 107.692 36.296 106.7 36.296C104.476 36.296 103.852 29.304 103.788 21.608ZM105.372 22.392L106.22 21.896C106.764 22.504 107.388 23.336 107.66 23.896L106.78 24.472C106.524 23.912 105.916 23.032 105.372 22.392ZM113.868 29.416V30.76H120.236V29.416H113.868ZM112.748 28.6H121.42V31.592H112.748V28.6ZM111.692 32.536H122.748V36.296H121.564V33.432H112.828V36.312H111.692V32.536ZM112.396 34.936H122.06V35.848H112.396V34.936ZM110.364 26.744H123.756V29.656H122.556V27.72H111.532V29.656H110.364V26.744ZM115.852 22.344L116.844 22.712C116.364 23.32 115.836 23.928 115.404 24.328L114.684 23.992C115.084 23.528 115.58 22.808 115.852 22.344ZM112.892 24.696L113.612 24.04C114.508 24.536 115.708 25.288 116.332 25.752L115.596 26.52C114.988 26.04 113.804 25.256 112.892 24.696ZM113.244 21.56H114.316C114.14 24.472 113.452 25.928 110.364 26.744C110.268 26.472 109.98 26.072 109.756 25.864C112.572 25.224 113.1 24.072 113.244 21.56ZM122.892 22.296L123.932 22.696C123.404 23.32 122.812 23.944 122.364 24.376L121.596 24.024C122.044 23.544 122.604 22.792 122.892 22.296ZM119.692 24.696L120.38 23.976C121.548 24.552 123.132 25.432 123.948 26.008L123.228 26.856C122.444 26.264 120.876 25.336 119.692 24.696ZM120.012 21.56H121.116C120.94 24.376 120.252 25.848 117.212 26.632C117.116 26.376 116.828 25.944 116.588 25.736C119.324 25.096 119.868 23.96 120.012 21.56ZM110.252 22.504L110.972 21.976C111.42 22.456 111.98 23.112 112.252 23.496L111.5 24.12C111.228 23.704 110.684 23 110.252 22.504ZM117.052 22.408L117.772 21.88C118.236 22.36 118.78 23 119.052 23.4L118.3 24.024C118.028 23.592 117.484 22.904 117.052 22.408ZM115.852 30.984L116.892 31.384C116.572 31.992 116.268 32.632 116.012 33.064L115.18 32.744C115.404 32.248 115.724 31.48 115.852 30.984ZM134.684 23.72H135.852V34.248H134.684V23.72ZM132.284 29.064V30.152H138.316V29.064H132.284ZM132.284 27.224V28.28H138.316V27.224H132.284ZM131.276 26.408H139.372V30.968H131.276V26.408ZM130.38 22.136H140.124V25H138.956V23.064H131.5V25H130.38V22.136ZM131.612 24.536H138.972V25.432H131.612V24.536ZM130.476 31.992H140.316V32.936H130.476V31.992ZM126.7 22.088L127.612 21.576C128.3 22.36 129.132 23.4 129.532 24.056L128.572 24.68C128.188 24.008 127.356 22.888 126.7 22.088ZM126.108 25.272H129.484V26.28H126.108V25.272ZM128.956 32.6C129.948 34.696 132.028 34.984 135.228 34.984C136.924 34.984 139.26 34.92 140.908 34.776C140.732 35.032 140.588 35.576 140.524 35.896C139.004 35.992 136.988 36.024 135.228 36.024C131.468 36.024 129.372 35.608 128.156 32.968L128.956 32.6ZM128.956 29.256H129.308L129.516 29.224L130.06 29.448C129.548 32.808 128.316 35.08 126.652 36.312C126.492 36.072 126.092 35.656 125.852 35.48C127.436 34.392 128.556 32.344 128.956 29.464V29.256ZM126.348 30.456V29.544L126.924 29.256H129.452V30.232H127.292C126.876 30.232 126.46 30.328 126.348 30.456ZM126.348 30.456C126.268 30.184 126.028 29.624 125.9 29.368C126.14 29.304 126.396 29.208 126.668 28.888C127.148 28.408 128.62 26.232 129.148 25.384V25.336L129.5 25.176L130.284 25.544C129.548 26.632 128.14 28.68 127.244 29.704C127.244 29.704 126.348 30.152 126.348 30.456ZM142.924 22.232H146.652V23.32H144.012V36.264H142.924V22.232ZM146.364 22.232H146.572L146.748 22.184L147.532 22.648C147.036 23.976 146.396 25.544 145.82 26.792C147.068 28.136 147.356 29.288 147.372 30.312C147.372 31.176 147.164 31.848 146.716 32.168C146.476 32.328 146.204 32.424 145.852 32.472C145.532 32.504 145.116 32.504 144.748 32.488C144.732 32.2 144.636 31.736 144.46 31.416C144.828 31.464 145.164 31.48 145.42 31.448C145.628 31.432 145.804 31.4 145.948 31.304C146.204 31.128 146.3 30.68 146.3 30.2C146.3 29.304 145.964 28.2 144.716 26.92C145.356 25.496 145.98 23.64 146.364 22.536V22.232ZM148.748 23.72H151.74V24.744H148.748V23.72ZM152.38 21.672H153.564V26.984C153.564 27.416 153.628 27.48 154.06 27.48C154.252 27.48 155.26 27.48 155.5 27.48C155.884 27.48 155.964 27.24 155.996 25.816C156.252 25.992 156.716 26.184 157.036 26.264C156.924 28.056 156.62 28.536 155.628 28.536C155.356 28.536 154.124 28.536 153.884 28.536C152.684 28.536 152.38 28.2 152.38 26.984V21.672ZM151.292 28.232L152.588 28.536C152.22 29.208 151.852 29.928 151.532 30.408L150.604 30.104C150.844 29.576 151.148 28.776 151.292 28.232ZM148.348 29.688H155.98V36.248H154.748V30.68H149.532V36.312H148.348V29.688ZM148.94 32.2H155.356V33.128H148.94V32.2ZM148.94 34.728H155.308V35.704H148.94V34.728ZM147.948 28.84L147.868 27.88L148.412 27.464L151.724 26.68C151.74 26.984 151.82 27.416 151.884 27.64C148.716 28.472 148.252 28.632 147.948 28.84ZM147.948 28.84C147.9 28.52 147.724 27.96 147.548 27.688C147.804 27.624 148.06 27.512 148.06 26.952V21.672H149.244V28.024C149.244 28.024 147.948 28.44 147.948 28.84ZM152.812 23.72H156.668V24.76H152.812V23.72ZM167.308 22.168H170.316V23.208H167.308V22.168ZM165.468 28.824H171.26V29.88H165.468V28.824ZM160.348 25.48H164.668V26.536H160.348V25.48ZM160.364 28.744H164.652V29.816H160.364V28.744ZM166.988 29.784C168.028 32.456 170.268 34.472 173.372 35.224C173.116 35.464 172.78 35.928 172.62 36.248C169.404 35.32 167.164 33.128 166.012 30.04L166.988 29.784ZM158.54 32.504C160.124 32.296 162.54 31.928 164.908 31.576L164.956 32.616C162.748 33 160.412 33.368 158.732 33.64L158.54 32.504ZM164.124 21.48L165.116 22.376C163.772 22.984 161.9 23.528 160.332 23.912C160.252 23.656 160.06 23.256 159.916 23C161.436 22.6 163.148 21.992 164.124 21.48ZM166.62 22.152H167.724V24.12C167.724 25.56 167.372 27.352 165.628 28.52C165.452 28.296 165.02 27.896 164.78 27.736C166.364 26.68 166.62 25.272 166.62 24.104V22.152ZM171.004 28.824H171.244L171.452 28.792L172.188 29.048C171.164 33.288 168.428 35.352 164.924 36.344C164.812 36.04 164.54 35.56 164.3 35.32C167.516 34.552 170.156 32.6 171.004 29.032V28.824ZM159.9 22.984L161.052 23.384V36.056H159.9V22.984ZM169.964 22.152H171.084V26.232C171.084 26.648 171.132 26.776 171.356 26.776C171.532 26.776 172.236 26.776 172.444 26.776C172.652 26.776 172.988 26.76 173.18 26.712C173.212 26.984 173.228 27.4 173.276 27.64C173.084 27.704 172.764 27.704 172.46 27.704C172.236 27.704 171.436 27.704 171.244 27.704C170.172 27.704 169.964 27.304 169.964 26.2V22.152ZM181.02 31.992L180.652 31.144C181.964 30.616 182.684 29.8 182.684 28.584L182.38 27.24L183.244 28.456C183.02 28.744 182.7 28.824 182.396 28.824C181.74 28.824 181.196 28.424 181.196 27.672C181.196 26.92 181.772 26.52 182.412 26.52C183.308 26.52 183.788 27.256 183.788 28.376C183.788 30.104 182.7 31.416 181.02 31.992ZM198.06 24.216H205.388V25.224H198.06V33.176H196.956V25.272L197.948 24.216H198.06ZM197.484 26.84H204.956V27.8H197.484V26.84ZM197.516 29.464H204.956V30.424H197.516V29.464ZM197.484 32.152H205.756V33.176H197.484V32.152ZM200.86 24.632H201.932V32.664H200.86V24.632ZM198.22 21.672L199.244 21.96C198.412 24.296 197.116 26.648 195.724 28.184C195.596 27.96 195.26 27.464 195.052 27.24C196.332 25.864 197.5 23.768 198.22 21.672ZM200.428 22.088L201.42 21.8C201.916 22.584 202.444 23.64 202.652 24.312L201.596 24.648C201.404 23.992 200.892 22.904 200.428 22.088ZM191.98 22.12L192.876 21.592C193.612 22.36 194.492 23.384 194.94 24.04L194.012 24.696C193.58 24.024 192.684 22.904 191.98 22.12ZM191.404 25.256H194.908V26.264H191.404V25.256ZM194.252 32.6C195.244 34.696 197.324 34.984 200.508 34.984C202.188 34.984 204.54 34.904 206.172 34.776C205.996 35.032 205.836 35.592 205.772 35.928C204.268 36.008 202.252 36.056 200.492 36.056C196.748 36.056 194.652 35.608 193.452 32.968L194.252 32.6ZM194.476 29.256H194.748L194.956 29.224L195.564 29.448C195.004 32.872 193.676 35.128 191.884 36.328C191.724 36.072 191.324 35.672 191.1 35.496C192.796 34.424 194.028 32.392 194.476 29.464V29.256ZM191.628 30.456V29.544L192.204 29.256H194.876L194.86 30.232H192.572C192.156 30.232 191.74 30.328 191.628 30.456ZM191.628 30.456C191.548 30.184 191.308 29.624 191.18 29.368C191.42 29.304 191.676 29.208 191.948 28.888C192.46 28.392 194.028 26.232 194.572 25.384V25.336L194.94 25.176L195.74 25.56C194.956 26.648 193.468 28.68 192.524 29.704C192.524 29.704 191.628 30.152 191.628 30.456ZM214.668 24.616H222.108V25.688H214.668V24.616ZM214.38 34.68H222.38V35.768H214.38V34.68ZM215.116 29.384H221.74V30.456H215.116V29.384ZM217.708 25.208H218.924V35.064H217.708V25.208ZM216.828 21.992L217.788 21.544C218.316 22.28 218.972 23.272 219.292 23.848L218.284 24.408C217.996 23.784 217.34 22.76 216.828 21.992ZM208.988 24.68H213.836V25.64H208.988V24.68ZM208.988 27.16H213.836V28.12H208.988V27.16ZM211.036 22.824H212.044V30.072H211.036V22.824ZM211.644 31.304L212.204 31.096C212.604 31.736 212.988 32.616 213.148 33.16L212.524 33.4C212.396 32.824 212.012 31.96 211.644 31.304ZM210.556 31.56L211.164 31.432C211.484 32.264 211.74 33.32 211.804 33.992L211.164 34.152C211.1 33.464 210.844 32.376 210.556 31.56ZM209.42 31.704L210.06 31.624C210.236 32.568 210.332 33.784 210.316 34.568L209.644 34.664C209.676 33.848 209.58 32.664 209.42 31.704ZM208.252 31.464L208.972 31.704C208.844 32.776 208.62 34.376 208.332 35.352L207.564 35.048C207.868 34.104 208.124 32.52 208.252 31.464ZM213.292 29.624H214.332C214.332 29.624 214.332 29.96 214.3 30.12C214.124 33.944 213.932 35.304 213.532 35.768C213.276 36.072 213.02 36.168 212.62 36.2C212.3 36.232 211.708 36.232 211.116 36.2C211.084 35.912 210.988 35.496 210.828 35.224C211.42 35.288 211.964 35.288 212.188 35.288C212.412 35.288 212.54 35.256 212.652 35.096C212.94 34.792 213.132 33.448 213.292 29.816V29.624ZM214.172 22.232V23.224H209.388V29.624H213.708V30.616H208.38V22.232H214.172ZM235.228 23.064H236.476V34.568C236.476 35.432 236.268 35.848 235.644 36.04C235.004 36.248 233.884 36.264 232.3 36.264C232.22 35.912 231.98 35.32 231.788 34.968C233.084 35.032 234.38 35.016 234.764 35C235.116 34.984 235.228 34.872 235.228 34.536V23.064ZM225.82 26.264H226.988V33.512H225.82V26.264ZM226.316 26.264H232.38V32.232H226.316V31.08H231.18V27.4H226.316V26.264ZM224.172 22.696H238.444V23.912H224.172V22.696ZM240.476 32.152H254.764V33.208H240.476V32.152ZM241.98 29.24H252.076V30.216H241.98V29.24ZM246.956 31.192H248.204V35.064C248.204 35.72 248.012 36.008 247.452 36.168C246.892 36.328 245.964 36.312 244.524 36.312C244.46 36.008 244.268 35.608 244.108 35.32C245.196 35.352 246.3 35.352 246.572 35.336C246.86 35.32 246.956 35.256 246.956 35.032V31.192ZM251.804 29.24H252.14L252.396 29.176L253.212 29.864C251.676 30.728 249.532 31.464 247.564 31.896C247.42 31.672 247.132 31.368 246.956 31.192C248.7 30.808 250.748 30.12 251.804 29.48V29.24ZM243.836 25.928V27.368H251.404V25.928H243.836ZM242.652 25.032H252.652V28.264H242.652V25.032ZM240.62 22.968H254.556V24.008H240.62V22.968ZM246.508 21.688L247.708 21.448C248.06 22.056 248.428 22.872 248.556 23.4L247.308 23.672C247.164 23.144 246.828 22.312 246.508 21.688ZM256.94 23.64H270.956V24.776H256.94V23.64ZM260.716 29.352H268.332V30.392H260.716V29.352ZM267.9 26.632H269.068V34.792C269.068 35.496 268.924 35.864 268.38 36.056C267.868 36.248 266.972 36.248 265.596 36.248C265.548 35.912 265.372 35.416 265.196 35.08C266.268 35.128 267.244 35.112 267.532 35.112C267.804 35.096 267.9 35.016 267.9 34.776V26.632ZM262.172 21.56L263.388 21.848C262.316 25.32 260.396 28.84 257.388 30.968C257.228 30.696 256.844 30.264 256.62 30.04C259.436 28.088 261.308 24.728 262.172 21.56ZM260.62 32.056H268.332V33.096H260.62V32.056ZM260.636 26.632H268.236V27.72H260.636V26.632ZM259.996 26.632H261.196V30.872C261.196 32.648 260.924 34.904 259.356 36.376C259.196 36.104 258.748 35.608 258.508 35.432C259.852 34.152 259.996 32.376 259.996 30.856V26.632ZM273.468 22.04H277.308V23.752H275.148V36.392H273.468V22.04ZM276.972 22.04H277.292L277.564 21.976L278.812 22.68C278.396 24.04 277.884 25.64 277.42 26.888C278.396 28.152 278.588 29.288 278.588 30.232C278.588 31.272 278.38 31.96 277.868 32.344C277.628 32.536 277.308 32.648 276.956 32.696C276.668 32.744 276.284 32.744 275.916 32.744C275.916 32.28 275.756 31.56 275.5 31.096C275.772 31.112 275.996 31.128 276.204 31.112C276.348 31.096 276.508 31.064 276.636 30.984C276.812 30.84 276.908 30.488 276.908 30.024C276.908 29.256 276.716 28.2 275.788 27.08C276.252 25.672 276.748 23.576 276.972 22.584V22.04ZM280.172 22.056H286.556V29.432H280.172V27.784H284.7V23.704H280.172V22.056ZM280.316 24.952H285.74V26.504H280.316V24.952ZM283.516 28.456C284.14 31.288 285.484 33.656 287.852 34.728C287.42 35.096 286.844 35.864 286.556 36.376C283.996 34.968 282.7 32.232 281.964 28.744L283.516 28.456ZM286.252 29.592L287.5 30.952C286.604 31.64 285.532 32.408 284.732 32.872L283.724 31.688C284.492 31.192 285.612 30.28 286.252 29.592ZM279.356 36.488L279.18 34.824L279.964 34.216L283.404 33.464C283.388 34.008 283.42 34.792 283.484 35.208C280.332 36.008 279.724 36.232 279.356 36.488ZM279.356 36.488C279.212 36.056 278.812 35.304 278.54 34.984C278.86 34.776 279.276 34.328 279.276 33.592V22.056H281.148V34.744C281.148 34.744 279.356 35.8 279.356 36.488ZM292.14 26.328H300.988V28.168H292.14V26.328ZM296.556 30.088H301.964V31.88H296.556V30.088ZM295.548 27.304H297.564V35.032L295.548 34.792V27.304ZM291.788 28.92L293.74 29.112C293.324 32.376 292.364 34.888 290.524 36.472C290.22 36.12 289.42 35.464 288.972 35.176C290.716 33.896 291.516 31.672 291.788 28.92ZM293.34 30.888C294.364 33.832 296.604 34.28 299.452 34.296C300.3 34.296 302.972 34.296 304.044 34.248C303.772 34.712 303.452 35.624 303.356 36.2H299.34C295.644 36.2 293.148 35.464 291.772 31.416L293.34 30.888ZM289.692 23.112H303.452V27.128H301.468V24.92H291.58V27.128H289.692V23.112ZM295.1 21.784L297.02 21.24C297.404 21.928 297.804 22.824 297.964 23.432L295.932 24.04C295.804 23.464 295.468 22.504 295.1 21.784ZM310.092 22.056H320.06V23.432H310.092V22.056ZM312.06 25.4H318.092V26.184H312.06V25.4ZM312.06 26.68H318.092V27.464H312.06V26.68ZM311.084 23.992H319.036V28.44H317.244V24.936H312.796V28.44H311.084V23.992ZM309.628 27.976H320.396V30.264H318.684V29.048H311.244V30.264H309.628V27.976ZM311.9 29.32L313.02 29.912C312.636 30.536 312.076 31.256 311.42 31.704L310.364 30.872C310.956 30.52 311.548 29.88 311.9 29.32ZM312.652 29.384H314.172V30.12C314.172 30.44 314.252 30.488 314.684 30.488C314.876 30.488 315.836 30.488 316.108 30.488C316.412 30.488 316.492 30.408 316.556 29.944C316.828 30.104 317.388 30.264 317.756 30.312C317.628 31.24 317.26 31.512 316.316 31.512C315.996 31.512 314.78 31.512 314.46 31.512C313.02 31.512 312.652 31.208 312.652 30.12V29.384ZM314.172 29.304L315.212 28.76C315.644 29.064 316.188 29.544 316.476 29.848L315.404 30.472C315.132 30.152 314.604 29.656 314.172 29.304ZM316.956 29.864L317.948 29.272C318.54 29.816 319.26 30.584 319.628 31.096L318.588 31.752C318.252 31.24 317.548 30.44 316.956 29.864ZM313.404 31.048L315.02 31.368C313.98 32.68 312.572 33.784 310.588 34.68C310.38 34.328 309.884 33.816 309.548 33.592C311.356 32.904 312.652 31.944 313.404 31.048ZM317.388 31.992H317.74L318.06 31.928L319.212 32.552C317.82 34.664 314.668 35.928 310.188 36.504C310.012 36.088 309.628 35.496 309.292 35.128C313.516 34.712 316.444 33.688 317.388 32.264V31.992ZM311.692 31.832C313.18 33.752 316.396 34.744 320.364 35.032C320.044 35.368 319.644 36.008 319.452 36.44C315.308 36.008 312.124 34.776 310.3 32.312L311.692 31.832ZM313.1 31.992H317.836V33.128H311.964L313.1 31.992ZM313.98 22.696L316.06 22.92C315.772 23.608 315.5 24.216 315.292 24.664L313.644 24.392C313.772 23.864 313.932 23.176 313.98 22.696ZM308.22 21.448L309.996 21.96C309.1 24.76 307.66 27.8 306.06 29.72C305.9 29.24 305.436 28.152 305.132 27.64C306.396 26.12 307.548 23.784 308.22 21.448ZM307.068 25.832L308.844 24.072L308.892 24.104V36.424H307.068V25.832ZM322.252 22.184H336.076V23.688H322.252V22.184ZM328.076 21.416H330.044V30.664H328.076V21.416ZM325.004 27.288V28.008H333.068V27.288H325.004ZM325.004 25.512V26.232H333.068V25.512H325.004ZM323.196 24.392H334.972V29.16H323.196V24.392ZM331.324 29.656L332.636 28.776C333.916 29.368 335.42 30.392 336.188 31.16L334.86 32.184C334.092 31.368 332.604 30.28 331.324 29.656ZM322.3 30.056C325.308 30.072 330.044 30.072 334.428 30.024L334.332 31.48C330.028 31.576 325.42 31.64 322.38 31.656L322.3 30.056ZM325.276 32.328H327.18V34.136C327.18 34.584 327.34 34.632 328.268 34.632C328.684 34.632 330.508 34.632 331.068 34.632C331.788 34.632 331.932 34.456 331.996 33.24C332.412 33.496 333.164 33.752 333.66 33.848C333.436 35.736 332.908 36.184 331.228 36.184C330.748 36.184 328.556 36.184 328.092 36.184C325.852 36.184 325.276 35.72 325.276 34.152V32.328ZM327.708 32.248L328.956 31.24C329.82 31.752 330.892 32.536 331.404 33.112L330.092 34.232C329.628 33.64 328.572 32.792 327.708 32.248ZM333.1 32.792L334.764 32.248C335.5 33.208 336.22 34.488 336.444 35.4L334.668 35.976C334.46 35.112 333.804 33.784 333.1 32.792ZM323.244 32.168L324.908 32.856C324.556 33.896 324.044 35.144 323.42 35.992L321.756 35.048C322.38 34.312 322.94 33.144 323.244 32.168ZM342.604 22.12H352.908V23.512H342.604V22.12ZM344.556 25.32V26.408H350.668V25.32H344.556ZM342.908 24.2H352.412V27.512H342.908V24.2ZM345.548 22.632H347.052V26.872H345.548V22.632ZM348.108 22.632H349.644V26.872H348.108V22.632ZM344.924 30.76V31.352H350.38V30.76H344.924ZM344.924 32.376V32.984H350.38V32.376H344.924ZM344.924 29.144V29.736H350.38V29.144H344.924ZM343.148 28.072H352.252V34.056H343.148V28.072ZM348.156 34.952L349.388 33.896C350.748 34.344 352.348 34.968 353.276 35.416L351.628 36.488C350.844 36.024 349.468 35.4 348.156 34.952ZM345.772 33.864L347.1 34.824C346.044 35.56 344.428 36.152 343.004 36.456C342.796 36.072 342.348 35.48 342.012 35.16C343.388 34.888 344.892 34.392 345.772 33.864ZM340.876 21.448L342.652 21.96C341.74 24.76 340.268 27.8 338.636 29.72C338.476 29.24 338.012 28.152 337.708 27.64C339.004 26.136 340.188 23.784 340.876 21.448ZM339.612 25.832L341.388 24.072L341.436 24.104V36.424H339.612V25.832ZM361.196 31.032L360.828 25.144L360.764 23.032H362.924L362.86 25.144L362.492 31.032H361.196ZM361.852 35.112C361.164 35.112 360.652 34.632 360.652 33.912C360.652 33.176 361.18 32.68 361.852 32.68C362.508 32.68 363.036 33.176 363.036 33.912C363.036 34.632 362.508 35.112 361.852 35.112Z" fill="#363636"/>
<rect x="1" y="1" width="384" height="54" rx="11" stroke="#363636" stroke-width="2"/>
<path d="M34.0382 55L27.5 66.9206L20.9618 55H34.0382Z" fill="white" stroke="#363636" stroke-width="2"/>
<path d="M22.6001 55H32.3001" stroke="white" stroke-width="2"/>
</svg>
