<svg width="60" height="60" viewBox="0 0 60 60" fill="none" xmlns="http://www.w3.org/2000/svg">
<path d="M58.5 30C58.5 31.8027 57.7979 32.7704 56.6895 33.8653C56.4909 34.0614 56.2698 34.2676 56.0342 34.4874C54.9645 35.4853 53.5951 36.7629 52.6743 38.6391C52.192 39.622 51.9396 40.8037 51.7693 41.9346C51.6485 42.737 51.5572 43.61 51.4694 44.4494C51.4334 44.7937 51.3979 45.1323 51.3613 45.458C51.2303 46.6239 51.0797 47.6763 50.8348 48.5617C50.5861 49.4608 50.2812 50.0284 49.9499 50.3531C49.6195 50.6771 49.1097 50.9238 48.3247 51.0779C47.5338 51.2332 46.5998 51.2696 45.5269 51.2742C45.2796 51.2752 45.0224 51.2745 44.7592 51.2737C43.9349 51.2714 43.0512 51.2689 42.2253 51.3204C41.1291 51.3887 39.9515 51.5578 38.9058 52.0357C37.027 52.8944 35.6389 54.4278 34.5304 55.6524C34.3161 55.889 34.1123 56.1142 33.9175 56.3207C32.6187 57.6969 31.5643 58.5 30 58.5C28.412 58.5 27.2604 57.6713 25.8625 56.2851C25.6401 56.0645 25.4074 55.8238 25.1633 55.5712C23.9916 54.3588 22.5558 52.8731 20.7235 52.0357C19.683 51.5602 18.5334 51.3895 17.4652 51.3206C16.6633 51.2689 15.8095 51.2714 15.0191 51.2738C14.7678 51.2745 14.5229 51.2752 14.288 51.2742C13.2628 51.2696 12.3792 51.2332 11.628 51.0801C10.8887 50.9294 10.3907 50.6871 10.0501 50.3531C9.7024 50.0123 9.37625 49.4237 9.09385 48.516C8.81602 47.623 8.62245 46.5642 8.44573 45.4004C8.39127 45.0417 8.33769 44.6673 8.28329 44.287C8.16811 43.4819 8.04921 42.6509 7.91032 41.8889C7.70526 40.7638 7.42717 39.6012 6.955 38.6391C6.0619 36.8193 4.80312 35.5591 3.81873 34.5735C3.58218 34.3366 3.36146 34.1157 3.16548 33.9066C2.15943 32.8334 1.5 31.8532 1.5 30C1.5 28.2854 2.25373 26.8296 3.3983 25.1996C3.66184 24.8243 3.95698 24.428 4.26595 24.0131C5.20927 22.7465 6.28141 21.3069 6.97626 19.7631C7.68942 18.1786 7.96863 16.361 8.2064 14.8131C8.2606 14.4602 8.31265 14.1213 8.3672 13.8025C8.68673 11.9346 9.09379 10.5843 10.0501 9.64685C10.4193 9.28486 11.0128 8.92922 11.8545 8.58592C12.6839 8.24764 13.6535 7.96063 14.7021 7.68357C15.1186 7.57351 15.5713 7.45928 16.0294 7.34369C16.6569 7.18535 17.2944 7.02447 17.8628 6.86832C18.8786 6.58924 19.9049 6.26666 20.7609 5.84658C21.8482 5.31294 22.736 4.74259 23.5127 4.2071C23.8111 4.00137 24.0778 3.8121 24.3288 3.63402C24.7631 3.32581 25.1502 3.05113 25.5724 2.78272C26.767 2.02314 27.9709 1.5 30 1.5C31.5889 1.5 32.7961 2.08189 34.1368 2.96206C34.4344 3.15742 34.7508 3.3779 35.0856 3.61126C36.1823 4.37564 37.477 5.27805 38.9589 5.88733C40.4132 6.48523 42.1383 6.86015 43.7117 7.20212C44.2437 7.31773 44.7583 7.42958 45.2393 7.545C47.2966 8.03871 48.898 8.61564 49.9499 9.64685C50.873 10.5517 51.208 11.8539 51.437 13.7312C51.4716 14.0144 51.5035 14.3145 51.5368 14.6272C51.7047 16.2061 51.9067 18.1048 52.6531 19.7631C53.3786 21.3751 54.5626 22.8604 55.5963 24.1571C55.898 24.5356 56.1869 24.898 56.4479 25.2428C57.6937 26.8889 58.5 28.3261 58.5 30Z" fill="white" stroke="#9A9A9A" stroke-width="3"/>
<path d="M26.25 24.75L30 21M30 21L33.75 24.75M30 21L30 39" stroke="#363636" stroke-width="1.5" stroke-linecap="round" stroke-linejoin="round"/>
</svg>
